<?xml version="1.0" encoding="utf-8"?>
<!-- Generator: Adobe Illustrator 15.0.0, SVG Export Plug-In . SVG Version: 6.00 Build 0)  -->
<!DOCTYPE svg PUBLIC "-//W3C//DTD SVG 1.1//EN" "http://www.w3.org/Graphics/SVG/1.1/DTD/svg11.dtd">
<svg version="1.1" id="Layer_1" xmlns="http://www.w3.org/2000/svg" xmlns:xlink="http://www.w3.org/1999/xlink" x="0px" y="0px"
	 width="595.28px" height="841.89px" viewBox="0 0 595.28 841.89" enable-background="new 0 0 595.28 841.89" xml:space="preserve">
<g id="g6674" transform="translate(129,0)">
	
		<path id="path20788" inkscape:connector-curvature="0" sodipodi:nodetypes="scsscccsscsscccccccsccccc" opacity="0.3" fill="#0B7E3F" stroke="#FFFFFF" stroke-width="2" enable-background="new    " d="
		M174.5,420c0-1.07-0.68-1.987-1.625-2.344c0.395-0.441,0.625-1.018,0.625-1.656c0-1.381-1.119-2.5-2.5-2.5
		c-0.197,0-0.379,0.02-0.562,0.062c-0.209-1.17-1.208-2.062-2.438-2.062s-2.229,0.894-2.438,2.062
		c-0.184-0.043-0.365-0.062-0.562-0.062c-1.381,0-2.5,1.119-2.5,2.5c0,0.64,0.23,1.215,0.625,1.656
		c-0.945,0.357-1.625,1.273-1.625,2.344c0,1.381,1,2.5,2.5,2.5h0.5l2,3.5v3.5h3V426l2-3.5l0.719-0.015
		C173.5,422.5,174.5,421.305,174.5,420z M166.5,422.5h3l-1,2h-1L166.5,422.5z"/>
	<path id="path4390-3" inkscape:connector-curvature="0" sodipodi:nodetypes="scsscccsscsscccccccsccccc" fill="#0B7E3F" d="
		M174.5,420c0-1.07-0.68-1.987-1.625-2.344c0.395-0.441,0.625-1.018,0.625-1.656c0-1.381-1.119-2.5-2.5-2.5
		c-0.197,0-0.379,0.02-0.562,0.062c-0.209-1.17-1.208-2.062-2.438-2.062s-2.229,0.894-2.438,2.062
		c-0.184-0.043-0.365-0.062-0.562-0.062c-1.381,0-2.5,1.119-2.5,2.5c0,0.64,0.23,1.215,0.625,1.656
		c-0.945,0.357-1.625,1.273-1.625,2.344c0,1.381,1,2.5,2.5,2.5h0.5l2,3.5v3.5h3V426l2-3.5l0.719-0.015
		C173.5,422.5,174.5,421.305,174.5,420z M166.5,422.5h3l-1,2h-1L166.5,422.5z"/>
</g>
</svg>
