<?xml version="1.0" encoding="utf-8"?>
<!-- Generator: Adobe Illustrator 15.0.0, SVG Export Plug-In . SVG Version: 6.00 Build 0)  -->
<!DOCTYPE svg PUBLIC "-//W3C//DTD SVG 1.1//EN" "http://www.w3.org/Graphics/SVG/1.1/DTD/svg11.dtd">
<svg version="1.1"
	 id="svg5294" sodipodi:docname="pictograms-nps-misc-dam.svg" sodipodi:version="0.32" inkscape:version="0.46" inkscape:output_extension="org.inkscape.output.svg.inkscape" xmlns:rdf="http://www.w3.org/1999/02/22-rdf-syntax-ns#" xmlns:dc="http://purl.org/dc/elements/1.1/" xmlns:cc="http://creativecommons.org/ns#" xmlns:svg="http://www.w3.org/2000/svg" xmlns:sodipodi="http://sodipodi.sourceforge.net/DTD/sodipodi-0.dtd" xmlns:inkscape="http://www.inkscape.org/namespaces/inkscape"
	 xmlns="http://www.w3.org/2000/svg" xmlns:xlink="http://www.w3.org/1999/xlink" x="0px" y="0px" width="256px" height="256px"
	 viewBox="0 0 256 256" enable-background="new 0 0 256 256" xml:space="preserve">
<g id="layer1" inkscape:groupmode="layer" inkscape:label="Layer 1">
	<g id="g7570" transform="matrix(25.897825,0,0,-25.897825,99.087482,202.43335)">
		<path id="path7572" fill="#DE95F9" stroke="#FFFFFF" stroke-width="0.25" stroke-miterlimit="10" d="M0,0h-2.793l0.002,0.547H0V0z
			"/>
	</g>
	<g id="g7574" transform="matrix(25.897825,0,0,-25.897825,99.087482,180.98726)">
		<path id="path7576" fill="#DE95F9" stroke="#FFFFFF" stroke-width="0.25" stroke-miterlimit="10" d="M0,0h-2.793l0.002,0.547H0V0z
			"/>
	</g>
	<g id="g7578" transform="matrix(25.897825,0,0,-25.897825,99.087482,159.48937)">
		<path id="path7580" fill="#DE95F9" stroke="#FFFFFF" stroke-width="0.25" stroke-miterlimit="10" d="M0,0h-2.793l0.002,0.547H0V0z
			"/>
	</g>
	<g id="g7582" transform="matrix(25.897825,0,0,-25.897825,99.087482,137.99128)">
		<path id="path7584" fill="#DE95F9" stroke="#FFFFFF" stroke-width="0.25" stroke-miterlimit="10" d="M0,0h-2.793l0.002,0.547H0V0z
			"/>
	</g>
	<g id="g7586" transform="matrix(25.897825,0,0,-25.897825,128.37268,51.801037)">
		<path id="path7588" fill="#DE95F9" stroke="#FFFFFF" stroke-width="0.25" stroke-miterlimit="10" d="M0,0
			c-0.051,0.121-0.172,0.207-0.311,0.207L-0.76,0.205v-6.021h2.127L0,0z"/>
	</g>
	<g id="g7590" transform="matrix(25.897825,0,0,-25.897825,99.087482,116.4967)">
		<path id="path7592" fill="#DE95F9" stroke="#FFFFFF" stroke-width="0.25" stroke-miterlimit="10" d="M0,0h-2.793l0.002,0.545H0V0z
			"/>
	</g>
	<g id="g7594" transform="matrix(25.897825,0,0,-25.897825,99.087482,95.048125)">
		<path id="path7596" fill="#DE95F9" stroke="#FFFFFF" stroke-width="0.25" stroke-miterlimit="10" d="M0,0h-2.793l0.002,0.547H0V0z
			"/>
	</g>
	<g id="g7598" transform="matrix(25.897825,0,0,-25.897825,99.087482,73.552516)">
		<path id="path7600" fill="#DE95F9" stroke="#FFFFFF" stroke-width="0.25" stroke-miterlimit="10" d="M0,0h-2.793l0.002,0.547H0V0z
			"/>
	</g>
	<g id="g7602" transform="matrix(25.897825,0,0,-25.897825,170.50842,190.09273)">
		<path id="path7604" fill="#DE95F9" d="M0,0c0.041-0.008,0.082-0.012,0.123-0.012c0.109,0,0.213,0.026,0.305,0.067
			c0.095,0.045,0.201,0.07,0.314,0.07c0.112,0,0.217-0.025,0.313-0.07c0.091-0.041,0.197-0.067,0.304-0.067
			c0.108,0,0.211,0.026,0.305,0.067c0.094,0.045,0.201,0.07,0.313,0.07c0.111,0,0.218-0.025,0.314-0.07
			c0.092-0.041,0.195-0.067,0.305-0.067v-0.455c-0.11,0-0.213,0.024-0.305,0.065c-0.096,0.045-0.203,0.07-0.314,0.07
			c-0.112,0-0.219-0.025-0.313-0.07C1.57-0.443,1.467-0.467,1.359-0.467c-0.107,0-0.213,0.024-0.304,0.065
			c-0.096,0.045-0.201,0.07-0.313,0.07c-0.113,0-0.219-0.025-0.314-0.07C0.336-0.443,0.232-0.467,0.123-0.467H0.105L0,0z"/>
	</g>
	<g id="g7606" transform="matrix(25.897825,0,0,-25.897825,165.8055,166.97612)">
		<path id="path7608" fill="#DE95F9" stroke="#FFFFFF" stroke-width="0.25" stroke-miterlimit="10" d="M0,0
			c0.094-0.041,0.197-0.066,0.305-0.066c0.109,0,0.213,0.025,0.304,0.066c0.096,0.045,0.202,0.07,0.315,0.07
			c0.111,0,0.217-0.025,0.312-0.07c0.092-0.041,0.198-0.066,0.305-0.066c0.107,0,0.211,0.025,0.305,0.066
			c0.093,0.045,0.201,0.07,0.312,0.07C2.27,0.07,2.377,0.045,2.473,0c0.091-0.041,0.195-0.066,0.304-0.066v-0.455
			c-0.109,0-0.213,0.023-0.304,0.064c-0.096,0.045-0.203,0.07-0.315,0.07c-0.111,0-0.219-0.025-0.312-0.07
			C1.752-0.498,1.648-0.521,1.541-0.521c-0.107,0-0.213,0.023-0.305,0.064c-0.095,0.045-0.201,0.07-0.312,0.07
			c-0.113,0-0.219-0.025-0.315-0.07C0.518-0.498,0.414-0.521,0.305-0.521c-0.067,0-0.131,0.007-0.194,0.025L0,0z"/>
	</g>
</g>
</svg>
